<?xml version="1.0" encoding="UTF-8" standalone="no"?>
<svg
   xmlns:dc="http://purl.org/dc/elements/1.1/"
   xmlns:cc="http://creativecommons.org/ns#"
   xmlns:rdf="http://www.w3.org/1999/02/22-rdf-syntax-ns#"
   xmlns:svg="http://www.w3.org/2000/svg"
   xmlns="http://www.w3.org/2000/svg"
   xmlns:sodipodi="http://sodipodi.sourceforge.net/DTD/sodipodi-0.dtd"
   xmlns:inkscape="http://www.inkscape.org/namespaces/inkscape"
   inkscape:export-ydpi="100"
   inkscape:export-xdpi="100"
   inkscape:export-filename="D:\Schule\UNI\Informatik\MASTER\Praxisseminar\SmartMirrorLogo100dpi.png"
   sodipodi:docname="SmartMirrorLogo.svg"
   inkscape:version="1.0 (4035a4fb49, 2020-05-01)"
   id="svg8"
   version="1.1"
   viewBox="0 0 210 297"
   height="297mm"
   width="210mm">
  <defs
     id="defs2">
    <rect
       id="rect837"
       height="82.243863"
       width="198.51967"
       y="121.9478"
       x="-91.106348" />
    <rect
       x="-91.106348"
       y="121.9478"
       width="198.51967"
       height="82.243863"
       id="rect845" />
  </defs>
  <sodipodi:namedview
     inkscape:window-maximized="1"
     inkscape:window-y="-8"
     inkscape:window-x="1912"
     inkscape:window-height="1017"
     inkscape:window-width="1920"
     inkscape:guide-bbox="true"
     showguides="false"
     showgrid="false"
     inkscape:document-rotation="0"
     inkscape:current-layer="g1084"
     inkscape:document-units="mm"
     inkscape:cy="446.28418"
     inkscape:cx="-159.60161"
     inkscape:zoom="0.52775453"
     inkscape:pageshadow="2"
     inkscape:pageopacity="0.0"
     borderopacity="1.0"
     bordercolor="#666666"
     pagecolor="#ffffff"
     id="base">
    <sodipodi:guide
       id="guide887"
       orientation="1,0"
       position="-52.348119,134.19709" />
    <sodipodi:guide
       id="guide889"
       orientation="1,0"
       position="-64.739706,137.47681" />
    <sodipodi:guide
       id="guide893"
       orientation="1,0"
       position="-46.771081,143.29282" />
    <sodipodi:guide
       id="guide895"
       orientation="1,0"
       position="15.451411,134.19709" />
    <sodipodi:guide
       id="guide899"
       orientation="0,-1"
       position="-62.060528,109.15123" />
    <sodipodi:guide
       id="guide901"
       orientation="1,0"
       position="33.710429,134.19709" />
    <sodipodi:guide
       id="guide916"
       orientation="0,-1"
       position="-50.950786,134.19709" />
    <sodipodi:guide
       id="guide941"
       orientation="1,0"
       position="-70.485336,143.29282" />
    <sodipodi:guide
       id="guide943"
       orientation="0,-1"
       position="-60.391303,162.52267" />
    <sodipodi:guide
       id="guide949"
       orientation="0,-1"
       position="-63.681371,137.47681" />
    <sodipodi:guide
       id="guide959"
       orientation="0,-1"
       position="-30.544265,148.07048" />
    <sodipodi:guide
       id="guide972"
       orientation="1,0"
       position="-75.322699,144.35115" />
    <sodipodi:guide
       id="guide1100"
       orientation="0,-1"
       position="-15.530896,148.97945" />
    <sodipodi:guide
       id="guide1102"
       orientation="0,-1"
       position="-15.336429,184.32379" />
    <sodipodi:guide
       id="guide1106"
       orientation="1,0"
       position="70.21518,144.35115" />
  </sodipodi:namedview>
  <metadata
     id="metadata5">
    <rdf:RDF>
      <cc:Work
         rdf:about="">
        <dc:format>image/svg+xml</dc:format>
        <dc:type
           rdf:resource="http://purl.org/dc/dcmitype/StillImage" />
        <dc:title></dc:title>
      </cc:Work>
    </rdf:RDF>
  </metadata>
  <g
     id="layer1"
     inkscape:groupmode="layer"
     inkscape:label="Ebene 1">
    <path
       id="path1089"
       d="M -151.92773 45.755859 L -151.92773 48.085938 L -151.92773 208.83789 L -34.537109 208.83789 L -34.537109 45.755859 L -151.92773 45.755859 z M -147.26953 50.416016 L -39.197266 50.416016 L -39.197266 204.17773 L -147.26953 204.17773 L -147.26953 50.416016 z "
       style="color:#000000;font-style:normal;font-variant:normal;font-weight:normal;font-stretch:normal;font-size:medium;line-height:normal;font-family:sans-serif;font-variant-ligatures:normal;font-variant-position:normal;font-variant-caps:normal;font-variant-numeric:normal;font-variant-alternates:normal;font-variant-east-asian:normal;font-feature-settings:normal;font-variation-settings:normal;text-indent:0;text-align:start;text-decoration:none;text-decoration-line:none;text-decoration-style:solid;text-decoration-color:#000000;letter-spacing:normal;word-spacing:normal;text-transform:none;writing-mode:lr-tb;direction:ltr;text-orientation:mixed;dominant-baseline:auto;baseline-shift:baseline;text-anchor:start;white-space:normal;shape-padding:0;shape-margin:0;inline-size:0;clip-rule:nonzero;display:inline;overflow:visible;visibility:visible;isolation:auto;mix-blend-mode:normal;color-interpolation:sRGB;color-interpolation-filters:linearRGB;solid-color:#000000;solid-opacity:1;vector-effect:none;fill:#000000;fill-opacity:1;fill-rule:evenodd;stroke:none;stroke-width:4.65976;stroke-linecap:butt;stroke-linejoin:miter;stroke-miterlimit:4;stroke-dasharray:none;stroke-dashoffset:0;stroke-opacity:1;color-rendering:auto;image-rendering:auto;shape-rendering:auto;text-rendering:auto;enable-background:accumulate;stop-color:#000000;stop-opacity:1;opacity:1" />
    <g
       transform="translate(-0.52916477)"
       style="font-size:42.3333px;line-height:125%;font-family:'Times New Roman';-inkscape-font-specification:'Times New Roman, ';font-variant-ligatures:no-common-ligatures;letter-spacing:0px;word-spacing:0px;writing-mode:lr-tb;white-space:pre;shape-inside:url(#rect837);fill:none;stroke:#000000;stroke-width:0.264583px;stroke-linecap:butt;stroke-linejoin:miter;stroke-opacity:1"
       id="text835"
       aria-label="SMART" />
    <g
       style="font-size:42.3333px;line-height:125%;font-family:'Times New Roman';-inkscape-font-specification:'Times New Roman, ';font-variant-ligatures:no-common-ligatures;letter-spacing:0px;word-spacing:0px;writing-mode:lr-tb;white-space:pre;shape-inside:url(#rect845);fill:none;stroke:#000000;stroke-width:0.264583px;stroke-linecap:butt;stroke-linejoin:miter;stroke-opacity:1"
       id="text843"
       transform="matrix(1.411185,0,0,1.411185,68.543096,-37.123526)"
       aria-label="MIRROR">
      <g
         id="g1084">
        <path
           sodipodi:nodetypes="cccccccccc"
           id="path1061"
           d="m -73.091305,108.02664 6.451137,10.58127 6.826117,-10.58127 h 3.290068 v 25.04586 h -3.427872 l 0.172255,-19.7728 -5.659714,9.17913 h -2.446019 l -5.240423,-8.83462"
           style="font-style:normal;font-variant:normal;font-weight:normal;font-stretch:normal;font-size:35.2778px;font-family:Bahnschrift;-inkscape-font-specification:Bahnschrift;fill:#000000;fill-opacity:1;stroke:none" />
        <path
           sodipodi:nodetypes="ccccccccccccc"
           id="path1057"
           style="font-style:normal;font-variant:normal;font-weight:normal;font-stretch:normal;font-size:35.2778px;font-family:Bahnschrift;-inkscape-font-specification:Bahnschrift;fill:#000000;fill-opacity:1;stroke:none"
           d="m -43.382607,108.02664 h 2.997235 l 9.232862,25.04586 h -3.789607 l -6.941872,-20.2055 -6.941873,20.2055 h -3.789607 z m -2.332333,11.11044 h 7.885833 v 3.34175 h -7.885833 z" />
        <path
           sodipodi:nodetypes="csscssccsccsccssccscccccccccccc"
           id="path1051"
           style="font-style:normal;font-variant:normal;font-weight:normal;font-stretch:normal;font-size:35.2778px;font-family:Bahnschrift;-inkscape-font-specification:Bahnschrift;fill:#000000;fill-opacity:1;stroke:none"
           d="m -25.407602,119.13708 h 8.543842 c 0.666053,0 1.257461,-0.16077 1.774225,-0.48232 0.516765,-0.32154 0.912951,-0.77514 1.188558,-1.36081 0.287091,-0.59715 0.430637,-2.04983 0.430637,-2.04983 v 0 c 0,0 -0.143546,-1.44694 -0.430637,-2.03261 -0.275607,-0.59715 -0.671793,-1.0565 -1.188558,-1.37804 -0.505281,-0.32155 -1.097341,-0.45261 -1.774225,-0.48232 h -8.543842 v -3.34174 h 8.406038 c 1.446941,0 2.715884,0.29858 3.806831,0.89573 1.10243,0.59715 1.95222,1.44694 2.54937,2.54937 0.608634,1.09095 0.9129497,3.78961 0.9129497,3.78961 v 0 c 0,0 -0.3043157,2.7044 -0.9129497,3.80683 -0.608633,1.09095 -1.464165,1.935 -2.566595,2.53215 -1.090947,0.59715 -2.354149,0.89572 -3.789606,0.89572 h -8.406038 z m -1.533069,-11.12767 h 3.514 v 25.06309 h -3.514 z m 8.354362,13.69426 3.496774,-0.79237 6.407877,12.1612 h -4.168566 z" />
        <path
           sodipodi:nodetypes="cccccccccc"
           id="path1047"
           style="font-style:normal;font-variant:normal;font-weight:normal;font-stretch:normal;font-size:35.2778px;font-family:Bahnschrift;-inkscape-font-specification:Bahnschrift;fill:#000000;fill-opacity:1;stroke:none"
           d="m 1.1848792,110.45144 h 3.514004 v 22.62105 h -3.514004 z m -6.9975306,-2.04983 H 11.69642 v 3.34174 H -5.8126514 Z" />
        <path
           sodipodi:nodetypes="cccccccccccccc"
           style="font-style:normal;font-variant:normal;font-weight:normal;font-stretch:normal;font-size:35.2778px;font-family:Bahnschrift;-inkscape-font-specification:Bahnschrift;fill:none;fill-opacity:1;stroke:#000000;stroke-opacity:1"
           d="m -85.004497,160.27314 h 3.290068 v -25.04586 h -3.427872 l 0.172255,19.7728 -5.659714,-9.17913 h -2.446019 l -5.615403,8.83462 0.172255,-19.42829 h -3.427873 v 25.04586 h 3.290069 l 6.826117,-10.58127 z"
           id="path1045" />
        <path
           sodipodi:nodetypes="sccssccsccssccssccssccsccssccs"
           id="path1033"
           style="font-style:normal;font-variant:normal;font-weight:normal;font-stretch:normal;font-size:35.2778px;font-family:Bahnschrift;-inkscape-font-specification:Bahnschrift;fill:none;fill-opacity:1;stroke:#000000;stroke-opacity:1"
           d="m -13.520867,134.9689 c -1.745516,0 -3.284326,0.37896 -4.616431,1.13688 -1.332105,0.7694 -2.365634,1.84887 -3.100588,3.2384 -0.723471,1.401 -1.085206,3.0202 -1.085206,4.85758 v 7.09691 c 0,1.83738 0.361735,3.45083 1.085206,4.84036 0.734954,1.401 1.768483,2.48047 3.100588,3.23839 1.332105,0.7694 2.870915,1.15411 4.616431,1.15411 1.745515,0 3.284325,-0.38471 4.6164288,-1.15411 1.3321047,-0.75792 2.3598921,-1.83739 3.0833621,-3.23839 0.7349546,-1.38953 1.1024319,-3.00298 1.1024319,-4.84036 v -7.09691 c 0,-1.83738 -0.3674773,-3.45658 -1.1024319,-4.85758 -0.72347,-1.38953 -1.7512574,-2.469 -3.0833621,-3.2384 -1.3321038,-0.75792 -2.8709138,-1.13688 -4.6164288,-1.13688 z m 0,3.46232 c 1.033529,0 1.940738,0.22967 2.721626,0.68902 0.792372,0.47083 1.4010055,1.13114 1.8259008,1.98094 0.4363793,0.86127 0.654569,1.85461 0.654569,2.98001 v 7.33805 c 0,1.1254 -0.2181897,2.11299 -0.654569,2.96279 -0.4248953,0.86127 -1.0335288,1.52158 -1.8259008,1.98093 -0.780888,0.47082 -1.688097,0.70624 -2.721626,0.70624 -1.033529,0 -1.94648,-0.23542 -2.738852,-0.70624 -0.780889,-0.45935 -1.389523,-1.11966 -1.825902,-1.98093 -0.424896,-0.8498 -0.637344,-1.83739 -0.637344,-2.96279 v -7.33805 c 0,-1.1254 0.212448,-2.11874 0.637344,-2.98001 0.436379,-0.8498 1.045013,-1.51011 1.825902,-1.98094 0.792372,-0.45935 1.705323,-0.68902 2.738852,-0.68902 z" />
        <path
           sodipodi:nodetypes="ccccsccccccccccccsscccscc"
           transform="matrix(0.18749018,0,0,0.18749018,-48.571304,26.306633)"
           d="m 265.38086,580.94141 v 133.67578 h 8.17578 10.56641 34.26757 c 7.71743,0 14.486,-1.59238 20.30469,-4.77735 5.87994,-3.18496 10.41269,-7.71772 13.59766,-13.59765 5.80051,-12.08009 5.91781,-29.03634 0,-40.51563 -3.24622,-5.8187 -7.80951,-10.32089 -13.68945,-13.50586 -2.09431,-1.14635 -4.31219,-2.07875 -6.64454,-2.8125 l 30.8086,-58.46679 H 340.5332 l -28.50781,56.50195 h -27.90234 v -56.50195 z m 18.74219,74.32617 h 35.0039 c 3.55247,0 6.70667,0.85724 9.46289,2.57226 2.75623,1.71497 4.86986,4.13408 6.33985,7.25782 2.67162,6.73872 2.96559,15.29059 0,21.77343 -1.46999,3.18497 -3.58362,5.63464 -6.33985,7.34961 -2.69497,1.71497 -5.84918,2.57227 -9.46289,2.57227 h -35.0039 z"
           style="font-style:normal;font-variant:normal;font-weight:normal;font-stretch:normal;font-size:35.2778px;font-family:Bahnschrift;-inkscape-font-specification:Bahnschrift;fill:none;fill-opacity:1;stroke:#000000;stroke-width:1.41118px;stroke-opacity:1"
           id="path1027" />
        <path
           sodipodi:nodetypes="ccccscccccccscccccccscccccccsccccsscccccccsscccscc"
           transform="matrix(0.18749018,0,0,0.18749018,-48.571304,26.306633)"
           d="m -101.88086,580.94141 v 133.67578 h 8.175782 10.566406 34.269531 c 7.717423,0 14.485994,-1.59238 20.304688,-4.77735 5.87994,-3.18496 10.410736,-7.71772 13.595703,-13.59765 5.8005153,-12.08009 5.9178149,-29.03633 0,-40.51563 -2.763942,-4.95424 -6.490827,-8.94529 -11.164062,-11.99023 L -2.9863281,580.94141 H -22.757812 l -19.5625,56.9375 c -2.105737,-0.2792 -4.282017,-0.43555 -6.548829,-0.43555 h -34.269531 v -56.50195 z m 125.830079,0 v 133.67578 h 8.177734 10.564453 34.269532 c 7.717422,0 14.485993,-1.59238 20.304687,-4.77735 5.879935,-3.18496 10.412685,-7.71772 13.597655,-13.59765 5.80051,-12.08009 5.91781,-29.03634 0,-40.51563 -2.76394,-4.95424 -6.49278,-8.94529 -11.166014,-11.99023 L 122.8457,580.94141 h -19.77343 l -19.560551,56.9375 c -2.106111,-0.27931 -4.283534,-0.43555 -6.550781,-0.43555 H 42.691406 v -56.50195 z m -107.087891,74.32617 h 35.003906 c 3.552469,0 6.706667,0.85724 9.462891,2.57226 2.756224,1.71497 4.869857,4.13408 6.339844,7.25782 2.67163,6.73872 2.965594,15.29059 0,21.77343 -1.469987,3.18497 -3.58362,5.63464 -6.339844,7.34961 -2.694973,1.71503 -5.852654,2.73073 -9.462891,2.57227 h -35.003906 z m 125.830078,0 h 35.003906 c 3.552469,0 6.70862,0.85724 9.464844,2.57226 2.756225,1.71497 4.867905,4.13408 6.337891,7.25782 2.67163,6.73872 2.965594,15.29059 0,21.77343 -1.469986,3.18497 -3.581666,5.63464 -6.337891,7.34961 -2.694973,1.71503 -5.851129,2.57227 -9.464844,2.57227 H 42.691406 Z"
           style="font-style:normal;font-variant:normal;font-weight:normal;font-stretch:normal;font-size:35.2778px;font-family:Bahnschrift;-inkscape-font-specification:Bahnschrift;fill:none;fill-opacity:1;stroke:#000000;stroke-width:1.41118px;stroke-opacity:1"
           id="path1021" />
        <path
           sodipodi:nodetypes="cscccsccsccccccscccsccsccccsc"
           id="path947"
           style="font-style:normal;font-variant:normal;font-weight:normal;font-stretch:normal;font-size:35.2778px;font-family:Bahnschrift;-inkscape-font-specification:Bahnschrift;fill:#000000;fill-opacity:1;stroke:none"
           d="m -88.507237,122.474 c 0.666053,0 1.257462,0.16077 1.774226,0.48232 0.516765,0.32154 0.912951,0.77514 1.188559,1.36081 0.517105,1.27454 0.562094,2.32453 0,3.55327 -0.275608,0.59715 -0.671794,1.0565 -1.188559,1.37804 -0.505281,0.32155 -1.09669,0.48232 -1.774226,0.48232 H -101.9468 v 3.34174 h 13.30176 c 1.446941,0 2.715885,-0.29858 3.806833,-0.89573 1.102432,-0.59715 1.952222,-1.44694 2.549372,-2.54937 1.117371,-2.35284 1.159754,-4.81758 0,-7.06727 -0.608634,-1.09095 -1.464166,-1.935 -2.566598,-2.53215 -1.090947,-0.59715 -2.354149,-0.89572 -3.859196,-0.88469 l -4.975877,0.011 c -0.666052,0.002 -1.257462,-0.16077 -1.774226,-0.48232 -0.516765,-0.32154 -0.912951,-0.77514 -1.188559,-1.36081 -0.520899,-1.27852 -0.564147,-2.84921 0,-4.08244 0.275608,-0.59715 0.671794,-1.0565 1.188559,-1.37804 0.505281,-0.32155 1.09669,-0.48232 1.774226,-0.48232 l 8.024052,0 v -3.34174 h -7.886249 c -1.446941,0 -2.715885,0.29858 -3.806833,0.89573 -1.102432,0.59715 -1.952213,1.44694 -2.549373,2.54937 -1.107151,2.34181 -1.153411,5.35905 0,7.59644 0.60864,1.09095 1.464167,1.935 2.566599,2.53215 1.090947,0.59715 2.354149,0.89572 3.789607,0.89572 h 4.768486" />
      </g>
    </g>
  </g>
</svg>
